<?xml version="1.0" standalone="no"?>
<!DOCTYPE svg PUBLIC "-//W3C//DTD SVG 20010904//EN"
 "http://www.w3.org/TR/2001/REC-SVG-20010904/DTD/svg10.dtd">
<svg version="1.0" xmlns="http://www.w3.org/2000/svg"
 width="920.000000pt" height="981.000000pt" viewBox="0 0 920.000000 981.000000"
 preserveAspectRatio="xMidYMid meet">
<metadata>
Created by potrace 1.16, written by Peter Selinger 2001-2019
</metadata>
<g transform="translate(0.000000,981.000000) scale(0.100000,-0.100000)"
fill="#000000" stroke="none">
<path d="M5270 9373 c-131 -23 -238 -81 -341 -187 -143 -146 -173 -306 -173
-916 0 -384 2 -433 50 -830 30 -259 47 -305 146 -394 67 -61 216 -143 329
-181 251 -86 536 -45 723 105 216 171 397 484 464 801 44 207 53 588 17 723
-52 197 -211 436 -426 642 -113 107 -300 203 -449 230 -70 12 -283 17 -340 7z"/>
<path d="M3410 9317 c-110 -34 -189 -80 -283 -166 -188 -172 -274 -297 -382
-561 -74 -179 -126 -330 -136 -395 -6 -33 -23 -102 -40 -154 -54 -170 -48
-394 15 -581 14 -41 26 -81 26 -89 0 -28 124 -304 161 -360 51 -77 151 -185
213 -230 121 -89 308 -171 437 -191 44 -7 127 -10 200 -8 144 6 272 38 345 89
84 58 219 250 282 402 107 255 106 470 -2 959 -35 157 -53 289 -61 428 -17
314 -48 464 -128 606 -39 70 -109 151 -165 190 -12 8 -60 29 -105 46 -68 25
-101 31 -192 34 -94 4 -121 1 -185 -19z"/>
<path d="M7516 7464 c-113 -27 -222 -99 -371 -244 -147 -143 -265 -335 -361
-589 -132 -348 -132 -581 0 -854 54 -112 134 -240 227 -363 110 -146 212 -229
392 -318 224 -112 358 -97 697 75 170 86 303 208 370 339 32 64 89 313 99 437
17 210 -19 493 -95 754 -54 187 -89 260 -168 353 -165 194 -295 310 -415 371
-104 52 -255 68 -375 39z"/>
<path d="M1389 7247 c-135 -41 -211 -95 -359 -260 -74 -81 -112 -135 -158
-220 -62 -113 -146 -326 -182 -460 -76 -282 -69 -564 20 -836 108 -330 385
-665 653 -789 198 -92 534 -91 782 2 160 61 292 164 381 297 50 76 130 254
194 434 65 185 65 317 0 530 -63 208 -280 679 -393 856 -47 73 -132 177 -162
198 -11 8 -39 34 -61 58 -23 24 -47 43 -53 43 -7 0 -31 13 -54 29 -75 51 -222
119 -282 130 -99 18 -240 13 -326 -12z"/>
<path d="M4570 6446 c-315 -65 -522 -145 -689 -263 -252 -180 -417 -415 -749
-1063 -116 -227 -134 -262 -190 -360 -89 -156 -228 -346 -304 -416 -112 -104
-316 -231 -423 -264 -22 -7 -82 -37 -133 -67 -108 -63 -156 -118 -321 -363
-97 -145 -159 -271 -186 -380 -8 -30 -21 -75 -29 -100 -62 -187 -80 -279 -97
-489 -22 -286 16 -536 111 -726 132 -265 356 -420 855 -591 278 -96 291 -98
555 -98 211 -1 245 2 330 22 118 28 269 77 425 137 239 93 392 148 474 172
216 63 445 91 801 99 l245 6 135 -30 c190 -43 242 -64 466 -193 205 -117 321
-172 434 -205 52 -15 97 -19 220 -18 135 0 169 4 265 27 353 88 813 273 970
391 217 162 373 463 460 886 84 412 46 777 -112 1069 -139 258 -425 605 -619
751 -32 24 -113 85 -179 135 -66 51 -147 110 -180 133 -79 53 -405 378 -526
523 -52 63 -171 209 -264 324 -377 470 -509 607 -710 743 -210 140 -482 222
-765 228 -133 3 -171 0 -270 -20z m455 -121 c285 -52 447 -133 608 -304 86
-92 135 -159 190 -262 257 -480 210 -1082 -119 -1505 -27 -35 -52 -64 -56 -64
-3 0 -12 17 -18 38 -18 54 -96 199 -189 348 -59 94 -84 145 -91 185 -6 30 -10
139 -9 244 l3 190 -33 105 c-38 120 -66 180 -84 180 -7 0 -62 -73 -122 -162
-111 -166 -188 -259 -237 -284 -15 -8 -45 -14 -68 -14 -76 0 -130 45 -180 151
-49 107 -60 178 -60 422 0 203 -1 221 -22 260 -27 53 -48 131 -48 179 0 44
-19 58 -77 58 -68 0 -261 -131 -398 -269 -110 -112 -121 -127 -130 -181 -20
-123 -86 -186 -336 -325 -89 -49 -175 -100 -190 -113 -60 -49 -60 -228 1 -285
20 -18 30 -38 30 -57 0 -46 36 -117 67 -133 15 -8 48 -18 73 -22 25 -4 56 -15
70 -24 14 -9 42 -24 62 -33 21 -10 56 -31 79 -48 37 -26 50 -30 111 -30 37 0
96 -8 129 -17 57 -16 64 -16 133 2 41 10 79 15 85 11 26 -17 12 -99 -33 -188
-53 -105 -63 -161 -71 -373 -5 -146 -16 -283 -31 -375 -3 -19 -30 -120 -59
-225 -30 -104 -62 -228 -71 -275 -9 -47 -31 -142 -50 -213 -72 -273 -76 -301
-79 -652 -3 -285 -5 -330 -24 -410 -23 -97 -59 -169 -127 -255 -86 -109 -82
-106 -204 -144 -192 -59 -270 -70 -495 -71 -224 0 -258 5 -475 77 -365 119
-561 226 -709 384 -137 147 -199 328 -208 616 -9 277 29 532 118 784 73 207
219 449 356 589 73 75 86 84 193 129 220 94 344 171 474 296 180 173 303 362
536 820 239 472 390 711 549 871 204 204 403 299 791 379 159 33 242 32 445
-5z m1075 -2065 c0 -6 -40 -51 -90 -101 -59 -60 -100 -112 -120 -152 -16 -33
-27 -63 -24 -66 3 -3 9 1 14 9 5 9 39 54 77 101 38 47 76 97 85 110 l17 24 0
-23 c1 -36 -43 -113 -93 -162 -66 -64 -60 -98 29 -186 39 -38 86 -112 126
-199 30 -65 33 -78 34 -185 2 -103 6 -126 39 -223 46 -138 46 -156 -1 -209
-102 -115 -189 -149 -313 -125 -34 7 -39 4 -94 -50 -32 -32 -66 -75 -77 -96
-19 -36 -19 -39 -2 -88 20 -56 53 -82 200 -158 132 -68 247 -190 406 -426 25
-38 95 -119 153 -180 59 -60 131 -140 161 -177 30 -38 56 -68 59 -68 3 0 38
26 77 59 145 118 215 141 377 122 168 -19 284 -14 363 13 86 31 186 91 304
183 51 40 93 69 93 64 0 -4 -17 -34 -38 -67 -58 -89 -202 -218 -283 -253 -64
-28 -198 -51 -329 -56 -63 -3 -137 -12 -165 -21 -85 -26 -163 -95 -260 -228
-24 -33 -86 -50 -241 -66 -215 -24 -354 19 -669 204 -72 42 -162 92 -202 111
-201 96 -475 137 -833 122 -178 -7 -196 -6 -207 10 -7 9 -13 26 -13 38 0 12
-11 53 -25 92 -32 92 -45 177 -45 293 0 52 -6 131 -14 175 -35 198 -29 351 19
503 24 75 80 166 145 237 16 17 40 64 55 110 41 125 116 242 277 432 116 138
243 219 421 270 55 16 106 37 127 54 19 15 71 46 115 67 144 72 273 132 282
132 4 0 19 9 33 20 27 21 50 26 50 10z"/>
<path d="M4593 6091 c-18 -3 -42 -14 -54 -24 -19 -16 -21 -26 -16 -69 4 -27
20 -80 36 -116 l30 -67 4 -250 c3 -230 5 -255 26 -315 32 -92 76 -157 122
-180 100 -51 164 0 346 275 48 72 106 156 130 187 24 32 50 73 58 92 19 46 19
139 0 176 -22 43 -272 193 -433 259 -75 31 -184 45 -249 32z"/>
<path d="M5662 3902 c-117 -59 -221 -165 -243 -245 -14 -54 -4 -168 21 -224
24 -55 34 -56 15 -2 -22 62 -20 201 4 247 26 50 101 121 189 177 92 59 107 56
99 -20 -7 -67 8 -65 17 1 4 34 2 54 -9 71 -20 29 -28 29 -93 -5z"/>
</g>
</svg>
